# xmcd
#
# Track frame offsets: 
#        150
#        19162
#        36237
#        53852
#        63385
#        81190
#        96262
#        113150
#        131837
#        153107
#        168732
#        185290
#        196612
#        215215
#        226090
#        244687
#        258412
#        268762
#        284667
#        297262
#
# Disc length: 4197 seconds
#
# Revision: 4
# Processed by: cddbd v1.5.2PL0 Copyright (c) Steve Scherf et al.
# Submitted via: ExactAudioCopy v1.0b1
#
DISCID=28106314
DTITLE=Wilmer X - Blod Eller Guld 1982-1987
DYEAR=1988
DGENRE=Rock
TTITLE0=Blod Eller Guld
TTITLE1=Spela Under Hot
TTITLE2=Bränner Ett Brev
TTITLE3=Gå Hela Vägen
TTITLE4=Be Mig Aldrig Mer
TTITLE5=Kör Dej Död
TTITLE6=Vild
TTITLE7=I Din Klinik
TTITLE8=Sanningens Pilot
TTITLE9=Vem Ar Den Flickan
TTITLE10=Hong Kong Pop
TTITLE11=Not Glamorous
TTITLE12=Förlorad Kontroll
TTITLE13=Nere På Knä Igen
TTITLE14=Din Blekaste Vän
TTITLE15=Sikta På Mitt Hjärta
TTITLE16=Du Du Du
TTITLE17=Svart Guld
TTITLE18=Siesta 'round The Clock
TTITLE19=Inga Ord
EXTD=YEAR: 1987
EXTT0=
EXTT1=
EXTT2=
EXTT3=
EXTT4=
EXTT5=
EXTT6=
EXTT7=
EXTT8=
EXTT9=
EXTT10=
EXTT11=
EXTT12=
EXTT13=
EXTT14=
EXTT15=
EXTT16=
EXTT17=
EXTT18=
EXTT19=
PLAYORDER=
